<svg width="355" height="73" viewBox="0 0 355 73" fill="none" xmlns="http://www.w3.org/2000/svg">
<path d="M180.697 45.6066C180.697 41.473 181.331 37.7394 182.597 34.4059C183.864 31.0057 185.664 28.1388 187.998 25.8053C190.331 23.4052 193.131 21.5718 196.398 20.305C199.665 18.9716 203.332 18.3049 207.399 18.3049C211.466 18.3049 215.133 18.9716 218.4 20.305C221.733 21.5718 224.567 23.4052 226.9 25.8053C229.234 28.1388 231.034 31.0057 232.3 34.4059C233.567 37.7394 234.201 41.473 234.201 45.6066C234.201 49.7401 233.567 53.4737 232.3 56.8072C231.034 60.1408 229.234 63.0076 226.9 65.4078C224.567 67.7412 221.733 69.5747 218.4 70.9081C215.133 72.1748 211.466 72.8082 207.399 72.8082C203.332 72.8082 199.665 72.1748 196.398 70.9081C193.131 69.5747 190.331 67.7412 187.998 65.4078C185.664 63.0076 183.864 60.1408 182.597 56.8072C181.331 53.4737 180.697 49.7401 180.697 45.6066ZM194.898 45.6066C194.898 47.6734 195.098 49.7068 195.498 51.7069C195.898 53.6404 196.565 55.4071 197.498 57.0072C198.498 58.5407 199.798 59.7741 201.399 60.7075C202.999 61.6409 204.999 62.1076 207.399 62.1076C209.799 62.1076 211.799 61.6409 213.399 60.7075C215.066 59.7741 216.366 58.5407 217.3 57.0072C218.3 55.4071 219 53.6404 219.4 51.7069C219.8 49.7068 220 47.6734 220 45.6066C220 43.5398 219.8 41.5063 219.4 39.5062C219 37.5061 218.3 35.7393 217.3 34.2059C216.366 32.6724 215.066 31.439 213.399 30.5056C211.799 29.5056 209.799 29.0055 207.399 29.0055C204.999 29.0055 202.999 29.5056 201.399 30.5056C199.798 31.439 198.498 32.6724 197.498 34.2059C196.565 35.7393 195.898 37.5061 195.498 39.5062C195.098 41.5063 194.898 43.5398 194.898 45.6066ZM189.898 2.00391H225.2V9.50436H189.898V2.00391Z" fill="#D4D4D4"/>
<path d="M156.916 0H171.117V71.4043H156.916V0Z" fill="#D4D4D4"/>
<path d="M131.133 0H145.334V71.4043H131.133V0Z" fill="#D4D4D4"/>
<path d="M108.111 40.006C107.444 36.4058 106.244 33.6723 104.511 31.8055C102.844 29.9387 100.277 29.0053 96.8102 29.0053C94.5434 29.0053 92.6433 29.4054 91.1098 30.2054C89.6431 30.9388 88.443 31.8722 87.5096 33.0056C86.6429 34.139 86.0095 35.3391 85.6095 36.6058C85.2761 37.8725 85.0761 39.0059 85.0095 40.006H108.111ZM85.0095 49.0066C85.2095 53.6068 86.3762 56.9404 88.5097 59.0072C90.6431 61.074 93.71 62.1074 97.7102 62.1074C100.577 62.1074 103.044 61.4073 105.111 60.0072C107.177 58.5405 108.444 57.007 108.911 55.4069H121.412C119.412 61.6073 116.345 66.0409 112.211 68.7078C108.078 71.3746 103.077 72.708 97.2102 72.708C93.1433 72.708 89.4764 72.0746 86.2095 70.8079C82.9427 69.4745 80.1758 67.6077 77.909 65.2075C75.6422 62.8074 73.8754 59.9406 72.6087 56.607C71.4086 53.2735 70.8086 49.6066 70.8086 45.6063C70.8086 41.7394 71.442 38.1392 72.7087 34.8057C73.9754 31.4722 75.7756 28.6053 78.109 26.2052C80.4425 23.7383 83.2093 21.8049 86.4095 20.4048C89.6764 19.0047 93.2766 18.3047 97.2102 18.3047C101.61 18.3047 105.444 19.1714 108.711 20.9048C111.978 22.5716 114.645 24.8384 116.711 27.7053C118.845 30.5721 120.378 33.839 121.312 37.5059C122.245 41.1727 122.578 45.0063 122.312 49.0066H85.0095Z" fill="#D4D4D4"/>
<path d="M0.681641 0H16.3826V27.4017H45.2844V0H60.9853V71.4043H45.2844V40.6025H16.3826V71.4043H0.681641V0Z" fill="#D4D4D4"/>
<rect x="253" width="25" height="73" fill="#D4D4D4"/>
<rect x="305" y="49" width="50" height="24" fill="#D4D4D4"/>
<rect x="305" width="50" height="24" fill="#D4D4D4"/>
<rect x="329" y="23" width="26" height="30" fill="#D4D4D4"/>
<rect x="278" y="24" width="27" height="25" fill="#D4D4D4"/>
</svg>
